<svg width="26" height="26" viewBox="0 0 26 26" fill="none" xmlns="http://www.w3.org/2000/svg">
<path d="M12.2986 0C11.635 0.0517617 10.9844 0.179205 10.3546 0.369742V3.85619H8.92639V0.9347C8.29195 1.24876 7.69033 1.62818 7.14428 2.07887C7.1414 2.08126 7.13924 2.08442 7.13635 2.0868V16.3278C7.13924 16.3301 7.1414 16.3333 7.14428 16.3357C8.80118 17.7082 10.8965 18.4422 13 18.4463C15.1522 18.4455 17.2316 17.6762 18.8557 16.3357C18.8586 16.3333 18.8608 16.3301 18.8636 16.3278V2.08678C18.8608 2.0844 18.8586 2.08123 18.8557 2.07885C18.3134 1.62959 17.7203 1.25662 17.099 0.947375V3.85619H15.6708V0.379275C15.037 0.186203 14.3853 0.0538417 13.7268 0V3.85621H12.2986L12.2986 0ZM4.33228 11.3798V18.6716C4.85481 19.1539 5.41739 19.5918 6.01441 19.9824C7.38985 20.8823 8.94708 21.5258 10.6196 21.8423V21.0013H15.3804V21.8423C17.0529 21.5259 18.6102 20.8823 19.9856 19.9824C20.5826 19.5918 21.1452 19.1539 21.6678 18.6716V11.3798H19.9856V17.8337C18.0794 19.3905 15.649 20.3252 13 20.3252C10.351 20.3252 7.92067 19.3904 6.01443 17.8337V11.3798H4.33228ZM15.3804 21.8423C14.6093 21.9881 13.8133 22.0644 13 22.0644C12.1866 22.0644 11.3907 21.9882 10.6196 21.8423V24.2147H7.80284V26H18.1972V24.2148H15.3804V21.8423Z" fill="white"/>
</svg>
