<svg width="51" height="51" viewBox="0 0 51 51" fill="none" xmlns="http://www.w3.org/2000/svg">
<path d="M14.875 40.375V36.125H29.9625C32.1938 36.125 34.1328 35.4167 35.7797 34C37.4266 32.5833 38.25 30.8125 38.25 28.6875C38.25 26.5625 37.4266 24.7917 35.7797 23.375C34.1328 21.9583 32.1938 21.25 29.9625 21.25H16.575L22.1 26.775L19.125 29.75L8.5 19.125L19.125 8.5L22.1 11.475L16.575 17H29.9625C33.3979 17 36.3464 18.1156 38.8078 20.3469C41.2693 22.5781 42.5 25.3583 42.5 28.6875C42.5 32.0167 41.2693 34.7969 38.8078 37.0281C36.3464 39.2594 33.3979 40.375 29.9625 40.375H14.875Z" fill="black"/>
</svg>
